<svg width="200" height="200" viewBox="0 0 200 200" fill="none" xmlns="http://www.w3.org/2000/svg">
<rect width="200" height="200" fill="#F5F5F5"/>
<g opacity="0.2">
<path d="M126.286 103.419V115.357H69.7143V103.419C70.6614 103.419 71.5558 103.273 72.3976 102.982C73.2395 102.691 73.8603 102.406 74.2602 102.127C74.6601 101.849 75.1547 101.46 75.7439 100.961C76.3753 100.402 76.9173 100.008 77.3697 99.7799C77.8222 99.5508 78.4168 99.4363 79.1534 99.4363C79.89 99.4363 80.474 99.5508 80.9055 99.7799C81.3369 100.009 81.8893 100.403 82.5628 100.961C83.1732 101.48 83.6677 101.873 84.0466 102.143C84.4254 102.412 85.0357 102.692 85.8775 102.982C86.7194 103.273 87.6244 103.419 88.5925 103.419C89.5395 103.419 90.434 103.268 91.2758 102.968C92.1177 102.668 92.728 102.388 93.1068 102.129C93.4857 101.869 93.9908 101.48 94.6221 100.963C95.0641 100.569 95.4061 100.289 95.6481 100.123C95.8901 99.9563 96.2164 99.8008 96.6268 99.6569C97.0371 99.5114 97.4949 99.4386 98 99.4386C98.7366 99.4386 99.3312 99.5532 99.7836 99.7822C100.236 100.011 100.778 100.405 101.409 100.964C101.999 101.461 102.493 101.85 102.893 102.13C103.293 102.408 103.914 102.693 104.756 102.984C105.598 103.275 106.492 103.421 107.439 103.421C108.386 103.421 109.281 103.275 110.122 102.984C110.964 102.693 111.585 102.409 111.985 102.13C112.385 101.851 112.879 101.462 113.469 100.964C114.1 100.404 114.642 100.01 115.095 99.7822C115.547 99.5532 116.142 99.4386 116.878 99.4386C117.594 99.4386 118.178 99.5532 118.63 99.7822C119.083 100.011 119.625 100.405 120.256 100.964C120.845 101.461 121.34 101.85 121.74 102.13C122.14 102.408 122.761 102.693 123.602 102.984C124.444 103.275 125.339 103.421 126.286 103.421V103.419ZM126.286 93.4693V99.4386C125.549 99.4386 124.965 99.3241 124.534 99.0951C124.102 98.866 123.55 98.4722 122.876 97.9135C122.266 97.3953 121.771 97.0015 121.393 96.7319C121.014 96.4626 120.403 96.1828 119.562 95.8924C118.72 95.6015 117.825 95.456 116.878 95.456C115.91 95.456 115.005 95.6015 114.163 95.8924C113.321 96.1834 112.711 96.4632 112.332 96.7319C111.953 97.0011 111.459 97.395 110.849 97.9135C110.386 98.3072 110.038 98.587 109.807 98.7529C109.575 98.92 109.249 99.0756 108.828 99.2195C108.407 99.365 107.944 99.4377 107.439 99.4377C106.702 99.4377 106.108 99.3232 105.655 99.0941C105.203 98.8651 104.661 98.4712 104.03 97.9125C103.419 97.3944 102.925 97.0005 102.546 96.7309C102.167 96.4616 101.557 96.1818 100.715 95.8915C99.8731 95.6005 98.9681 95.4551 98 95.4551C97.0529 95.4551 96.1585 95.6052 95.3166 95.9054C94.4748 96.2057 93.8645 96.4855 93.4857 96.7449C93.1068 97.0049 92.6017 97.3935 91.9703 97.9107C91.5284 98.3044 91.1864 98.5842 90.9444 98.7501C90.7023 98.9173 90.3761 99.0728 89.9657 99.2167C89.5553 99.3622 89.0976 99.4349 88.5925 99.4349C87.8559 99.4349 87.2613 99.3204 86.8088 99.0914C86.3563 98.8623 85.8144 98.4684 85.183 97.9097C84.5938 97.4123 84.0992 97.0237 83.6993 96.7439C83.2994 96.4654 82.6786 96.1803 81.8367 95.8887C80.9949 95.5978 80.1004 95.4523 79.1534 95.4523C78.1853 95.4523 77.2803 95.5978 76.4385 95.8887C75.5966 96.1797 74.9863 96.4595 74.6075 96.7281C74.2286 96.9974 73.7341 97.3913 73.1237 97.9097C72.4923 98.4694 71.9504 98.8632 71.4979 99.0914C71.0454 99.3229 70.4509 99.4386 69.7143 99.4386V93.4693C69.7143 91.8112 70.3036 90.4018 71.4821 89.2411C72.6607 88.0804 74.0918 87.5 75.7755 87.5H77.7959V73.5714H85.8775V87.5H93.9592V73.5714H102.041V87.5H110.122V73.5714H118.204V87.5H120.224C121.908 87.5 123.339 88.0804 124.518 89.2411C125.696 90.4018 126.286 91.8112 126.286 93.4693V93.4693ZM85.8775 66.6071C85.8775 68.203 85.4987 69.4311 84.7411 70.2912C83.9834 71.1514 83.0153 71.5815 81.8367 71.5815C80.7213 71.5815 79.769 71.1929 78.9798 70.4157C78.1905 69.6385 77.7959 68.7006 77.7959 67.6021C77.7959 67.001 77.8959 66.4725 78.0958 66.0166C78.2958 65.5603 78.543 65.2079 78.8377 64.9594C79.1323 64.7118 79.4585 64.4216 79.8163 64.0889C80.1741 63.757 80.5003 63.4307 80.795 63.1097C81.0896 62.7884 81.3369 62.3272 81.5368 61.7261C81.7368 61.125 81.8367 60.4306 81.8367 59.6429C82.6365 59.6429 83.5099 60.4097 84.457 61.9434C85.404 63.4774 85.8775 65.032 85.8775 66.6071V66.6071ZM102.041 66.6071C102.041 68.203 101.662 69.4311 100.904 70.2912C100.147 71.1514 99.1786 71.5815 98 71.5815C96.8846 71.5815 95.9322 71.1929 95.143 70.4157C94.3538 69.6385 93.9592 68.7006 93.9592 67.6021C93.9592 67.001 94.0591 66.4725 94.2591 66.0166C94.459 65.5603 94.7063 65.2079 95.001 64.9594C95.2956 64.7118 95.6218 64.4216 95.9796 64.0889C96.3374 63.757 96.6636 63.4307 96.9582 63.1097C97.2529 62.7884 97.5002 62.3272 97.7001 61.7261C97.9 61.125 98 60.4306 98 59.6429C98.7997 59.6429 99.6732 60.4097 100.62 61.9434C101.567 63.4774 102.041 65.032 102.041 66.6071V66.6071ZM118.204 66.6071C118.204 68.203 117.825 69.4311 117.068 70.2912C116.31 71.1514 115.342 71.5815 114.163 71.5815C113.048 71.5815 112.096 71.1929 111.306 70.4157C110.517 69.6385 110.122 68.7006 110.122 67.6021C110.122 67.001 110.222 66.4725 110.422 66.0166C110.622 65.5603 110.87 65.2079 111.164 64.9594C111.459 64.7118 111.785 64.4216 112.143 64.0889C112.501 63.757 112.827 63.4307 113.121 63.1097C113.416 62.7884 113.663 62.3272 113.863 61.7261C114.063 61.125 114.163 60.4306 114.163 59.6429C114.963 59.6429 115.836 60.4097 116.783 61.9434C117.731 63.4774 118.204 65.032 118.204 66.6071V66.6071Z" fill="black"/>
</g>
<path d="M63.28 141H61.228L57.796 135.804V141H55.744V132.576H57.796L61.228 137.796V132.576H63.28V141ZM68.7514 141.084C67.9594 141.084 67.2314 140.9 66.5674 140.532C65.9114 140.164 65.3874 139.652 64.9954 138.996C64.6114 138.332 64.4194 137.588 64.4194 136.764C64.4194 135.94 64.6114 135.2 64.9954 134.544C65.3874 133.888 65.9114 133.376 66.5674 133.008C67.2314 132.64 67.9594 132.456 68.7514 132.456C69.5434 132.456 70.2674 132.64 70.9234 133.008C71.5874 133.376 72.1074 133.888 72.4834 134.544C72.8674 135.2 73.0594 135.94 73.0594 136.764C73.0594 137.588 72.8674 138.332 72.4834 138.996C72.0994 139.652 71.5794 140.164 70.9234 140.532C70.2674 140.9 69.5434 141.084 68.7514 141.084ZM68.7514 139.212C69.4234 139.212 69.9594 138.988 70.3594 138.54C70.7674 138.092 70.9714 137.5 70.9714 136.764C70.9714 136.02 70.7674 135.428 70.3594 134.988C69.9594 134.54 69.4234 134.316 68.7514 134.316C68.0714 134.316 67.5274 134.536 67.1194 134.976C66.7194 135.416 66.5194 136.012 66.5194 136.764C66.5194 137.508 66.7194 138.104 67.1194 138.552C67.5274 138.992 68.0714 139.212 68.7514 139.212ZM81.844 136.68C82.332 136.784 82.724 137.028 83.02 137.412C83.316 137.788 83.464 138.22 83.464 138.708C83.464 139.412 83.216 139.972 82.72 140.388C82.232 140.796 81.548 141 80.668 141H76.744V132.576H80.536C81.392 132.576 82.06 132.772 82.54 133.164C83.028 133.556 83.272 134.088 83.272 134.76C83.272 135.256 83.14 135.668 82.876 135.996C82.62 136.324 82.276 136.552 81.844 136.68ZM78.796 135.984H80.14C80.476 135.984 80.732 135.912 80.908 135.768C81.092 135.616 81.184 135.396 81.184 135.108C81.184 134.82 81.092 134.6 80.908 134.448C80.732 134.296 80.476 134.22 80.14 134.22H78.796V135.984ZM80.308 139.344C80.652 139.344 80.916 139.268 81.1 139.116C81.292 138.956 81.388 138.728 81.388 138.432C81.388 138.136 81.288 137.904 81.088 137.736C80.896 137.568 80.628 137.484 80.284 137.484H78.796V139.344H80.308ZM86.7062 132.576V141H84.6542V132.576H86.7062ZM92.4892 141L90.7372 137.82H90.2452V141H88.1932V132.576H91.6372C92.3012 132.576 92.8652 132.692 93.3292 132.924C93.8012 133.156 94.1532 133.476 94.3852 133.884C94.6172 134.284 94.7332 134.732 94.7332 135.228C94.7332 135.788 94.5732 136.288 94.2532 136.728C93.9412 137.168 93.4772 137.48 92.8612 137.664L94.8052 141H92.4892ZM90.2452 136.368H91.5172C91.8932 136.368 92.1732 136.276 92.3572 136.092C92.5492 135.908 92.6452 135.648 92.6452 135.312C92.6452 134.992 92.5492 134.74 92.3572 134.556C92.1732 134.372 91.8932 134.28 91.5172 134.28H90.2452V136.368ZM102.081 132.576V134.22H99.8493V141H97.7973V134.22H95.5653V132.576H102.081ZM110.407 132.576V141H108.355V137.532H105.163V141H103.111V132.576H105.163V135.876H108.355V132.576H110.407ZM115.045 132.576C115.933 132.576 116.709 132.752 117.373 133.104C118.037 133.456 118.549 133.952 118.909 134.592C119.277 135.224 119.461 135.956 119.461 136.788C119.461 137.612 119.277 138.344 118.909 138.984C118.549 139.624 118.033 140.12 117.361 140.472C116.697 140.824 115.925 141 115.045 141H111.889V132.576H115.045ZM114.913 139.224C115.689 139.224 116.293 139.012 116.725 138.588C117.157 138.164 117.373 137.564 117.373 136.788C117.373 136.012 117.157 135.408 116.725 134.976C116.293 134.544 115.689 134.328 114.913 134.328H113.941V139.224H114.913ZM125.851 139.512H122.707L122.203 141H120.055L123.103 132.576H125.479L128.527 141H126.355L125.851 139.512ZM125.323 137.928L124.279 134.844L123.247 137.928H125.323ZM136.679 132.576L133.763 138.216V141H131.711V138.216L128.795 132.576H131.123L132.755 136.104L134.375 132.576H136.679ZM140.554 141.084C139.938 141.084 139.386 140.984 138.898 140.784C138.41 140.584 138.018 140.288 137.722 139.896C137.434 139.504 137.282 139.032 137.266 138.48H139.45C139.482 138.792 139.59 139.032 139.774 139.2C139.958 139.36 140.198 139.44 140.494 139.44C140.798 139.44 141.038 139.372 141.214 139.236C141.39 139.092 141.478 138.896 141.478 138.648C141.478 138.44 141.406 138.268 141.262 138.132C141.126 137.996 140.954 137.884 140.746 137.796C140.546 137.708 140.258 137.608 139.882 137.496C139.338 137.328 138.894 137.16 138.55 136.992C138.206 136.824 137.91 136.576 137.662 136.248C137.414 135.92 137.29 135.492 137.29 134.964C137.29 134.18 137.574 133.568 138.142 133.128C138.71 132.68 139.45 132.456 140.362 132.456C141.29 132.456 142.038 132.68 142.606 133.128C143.174 133.568 143.478 134.184 143.518 134.976H141.298C141.282 134.704 141.182 134.492 140.998 134.34C140.814 134.18 140.578 134.1 140.29 134.1C140.042 134.1 139.842 134.168 139.69 134.304C139.538 134.432 139.462 134.62 139.462 134.868C139.462 135.14 139.59 135.352 139.846 135.504C140.102 135.656 140.502 135.82 141.046 135.996C141.59 136.18 142.03 136.356 142.366 136.524C142.71 136.692 143.006 136.936 143.254 137.256C143.502 137.576 143.626 137.988 143.626 138.492C143.626 138.972 143.502 139.408 143.254 139.8C143.014 140.192 142.662 140.504 142.198 140.736C141.734 140.968 141.186 141.084 140.554 141.084Z" fill="#C4C4C4"/>
</svg>
